<?xml version="1.0" encoding="UTF-8"?>
<svg width="34" height="34" version="1.1" viewBox="0 0 34 34" xmlns="http://www.w3.org/2000/svg" xmlns:cc="http://creativecommons.org/ns#" xmlns:dc="http://purl.org/dc/elements/1.1/" xmlns:rdf="http://www.w3.org/1999/02/22-rdf-syntax-ns#">
 <metadata>
  <rdf:RDF>
   <cc:Work rdf:about="">
    <dc:format>image/svg+xml</dc:format>
    <dc:type rdf:resource="http://purl.org/dc/dcmitype/StillImage"/>
    <dc:title/>
   </cc:Work>
  </rdf:RDF>
 </metadata>
 <path d="m26.917 0h-19.833c-3.9114 0-7.0833 3.1719-7.0833 7.0833v19.833c0 3.9114 3.1719 7.0833 7.0833 7.0833h19.833c3.9128 0 7.0833-3.1719 7.0833-7.0833v-19.833c0-3.9114-3.1705-7.0833-7.0833-7.0833zm-4.25 9.9167h-2.7257c-0.87125 0-1.5243 0.357-1.5243 1.2594v1.5739h4.25l-0.33717 4.25h-3.9128v11.333h-4.25v-11.333h-2.8333v-4.25h2.8333v-2.7242c0-2.8645 1.5073-4.3591 4.9031-4.3591h3.5969z" fill="#fff" stroke-width="1.4167"/>
</svg>
