<?xml version="1.0" encoding="UTF-8"?>
<!-- Created with Inkscape (http://www.inkscape.org/) -->
<svg width="421" height="63.979" version="1.1" viewBox="0 0 421 63.979" xml:space="preserve" xmlns="http://www.w3.org/2000/svg" xmlns:cc="http://creativecommons.org/ns#" xmlns:dc="http://purl.org/dc/elements/1.1/" xmlns:rdf="http://www.w3.org/1999/02/22-rdf-syntax-ns#"><metadata><rdf:RDF><cc:Work rdf:about=""><dc:format>image/svg+xml</dc:format><dc:type rdf:resource="http://purl.org/dc/dcmitype/StillImage"/><dc:title/></cc:Work></rdf:RDF></metadata><g transform="matrix(1.3333 0 0 -1.3333 0 63.978)"><g transform="matrix(.13701 0 0 .13701 0 .00014458)"><g fill="#fff"><path d="m702 239.67h-12.902v108.29h22.347l27.301-90.898h0.297l27.605 90.898h22.797v-108.29h-13.801v96.293h-0.3l-30.297-96.293h-13.055l-29.695 96.293h-0.297v-96.293"/><path d="m824.93 239.67h-13.797v108.29h13.797v-108.29"/><path d="m894.15 318.11c0.149 6.149-0.304 12.301-3.148 15.746-2.856 3.454-9.305 4.657-12.156 4.657-11.395 0-15.899-6.903-16.348-8.407-0.449-1.195-3.148-3.894-3.148-22.492v-28.953c0-26.547 8.699-29.695 19.351-29.695 4.199 0 16.945 1.5 17.098 22.644h14.25c0.597-34.199-23.551-34.199-30.602-34.199-13.496 0-34.199 0.902-34.199 42.902v30.594c0 30.602 13.5 39.305 34.801 39.305 21.449 0 29.703-11.102 28.347-32.102h-14.246"/><path d="m927.78 239.67v108.29h13.797v-46.797h37.945v46.797h13.805v-108.29h-13.805v49.496h-37.945v-49.496h-13.797"/><path d="m1029 239.67h-13.8v108.29h13.8v-108.29"/><path d="m1102.5 319.01c0 12.75-5.25 19.648-19.2 19.648-4.35 0-19.96-0.746-19.96-23.398v-36.598c0-23.699 6.9-29.695 19.96-29.695 9.89 0 16.49 2.699 19.35 4.801v32.394h-19.95v12h33.75v-52.648c-8.86-4.801-19.2-8.102-33.15-8.102-22.95 0-34.05 11.852-34.05 41.852v35.547c0 21.601 11.1 35.402 34.05 35.402 23.39 0 34.49-8.551 33.59-31.203h-14.39"/><path d="m1174.1 335.22h-0.31l-16.94-57.75h34.64zm-8.41 12.746h17.56l35.24-108.29h-15.45l-7.8 25.801h-41.85l-8.09-25.801h-13.95l34.34 108.29"/><path d="m1307.8 347.96v-108.29h-18.91l-42.75 93.895h-0.29v-93.895h-12.31v108.29h19.5l42.15-92.695h0.3v92.695h12.31"/><path d="m1405.4 318.11c0.16 6.149-0.29 12.301-3.14 15.746-2.85 3.454-9.3 4.657-12.15 4.657-11.4 0-15.9-6.903-16.35-8.407-0.45-1.195-3.15-3.894-3.15-22.492v-28.953c0-26.547 8.7-29.695 19.35-29.695 4.19 0 16.95 1.5 17.1 22.644h14.24c0.61-34.199-23.54-34.199-30.59-34.199-13.5 0-34.2 0.902-34.2 42.902v30.594c0 30.602 13.5 39.305 34.79 39.305 21.46 0 29.71-11.102 28.36-32.102h-14.26"/><path d="m1438.6 239.67v108.29h55.8v-12h-42v-34.797h38.99v-12h-38.99v-37.496h42.9v-12h-56.7"/><path d="m1586.5 347.96v-108.29h-18.9l-42.74 93.895h-0.3v-93.895h-12.3v108.29h19.49l42.15-92.695h0.31v92.695h12.29"/><path d="m1672.2 347.96v-12h-28.49v-96.293h-13.79v96.293h-28.51v12h70.79"/><path d="m1686.8 239.67v108.29h55.8v-12h-42v-34.797h39v-12h-39v-37.496h42.9v-12h-56.7"/><path d="m1773.6 301.46h20.7c9.9 0 14.71 8.547 14.71 17.996 0 7.805-3.91 16.5-14.55 16.5h-20.86zm0-12v-49.797h-13.79v108.29h37.34c19.2 0 25.95-13.5 25.95-26.996 0-12.754-7.05-22.5-19.8-24.75v-0.297c12.45-1.953 16.95-6.152 17.7-27.902 0.16-4.649 1.65-21.602 3.75-28.348h-14.39c-3.91 7.5-3.01 21.602-4.2 35.996-1.06 13.203-11.7 13.801-16.35 13.801h-16.21"/><path d="m1922 278.66v36.598c0 22.652-15.6 23.398-19.95 23.398-4.36 0-19.95-0.746-19.95-23.398v-36.598c0-23.699 6.9-29.695 19.95-29.695 13.04 0 19.95 5.996 19.95 29.695zm-54 0.602v35.547c0 21.601 11.1 35.402 34.05 35.402s34.04-13.801 34.04-35.402v-35.547c0-30-11.09-41.852-34.04-41.852s-34.05 11.852-34.05 41.852"/><path d="m2030.7 347.96v-108.29h-18.9l-42.75 93.895h-0.29v-93.895h-12.31v108.29h19.49l42.15-92.695h0.31v92.695h12.3"/><path d="m2141.4 347.96v-12h-28.49v-96.293h-13.8v96.293h-28.51v12h70.8"/><path d="m2156.4 239.67v108.29h13.79v-46.797h37.95v46.797h13.81v-108.29h-13.81v49.496h-37.95v-49.496h-13.79"/><path d="m2242.9 239.67v108.29h55.8v-12h-42.01v-34.797h39v-12h-39v-37.496h42.9v-12h-56.69"/><path d="m703.05 111.67h13.047c19.199 0 26.25 7.195 26.25 32.402v21.895c0 21.902-6.746 29.996-21.145 29.996h-18.152zm-13.797 96.293h33.297c13.797 0 23.699-4.949 29.101-16.496 4.352-9.152 4.797-30.742 4.797-34.199 0-23.098-2.097-36.45-6.601-43.645-5.848-9.305-16.797-13.957-35.696-13.957h-24.898v108.3"/><path d="m784.6 99.664v108.3h55.801v-12h-42.004v-34.789h39v-12.004h-39v-37.5h42.903v-12.004h-56.7"/><path d="m879.51 99.664h-12.899v108.3h22.348l27.301-90.895h0.297l27.601 90.895h22.801v-108.3h-13.801v96.297h-0.305l-30.296-96.297h-13.051l-29.699 96.297h-0.297v-96.297"/><path d="m1049.8 138.67v36.59c0 22.652-15.6 23.398-19.95 23.398s-19.95-0.746-19.95-23.398v-36.59c0-23.703 6.9-29.699 19.95-29.699s19.95 5.996 19.95 29.699zm-53.997 0.594v35.547c0 21.601 11.097 35.402 34.047 35.402s34.05-13.801 34.05-35.402v-35.547c0-30-11.1-41.844-34.05-41.844s-34.047 11.844-34.047 41.844"/><path d="m1144.5 179.01c0 12.75-5.25 19.648-19.2 19.648-4.35 0-19.95-0.746-19.95-23.398v-36.59c0-23.703 6.9-29.699 19.95-29.699 9.9 0 16.5 2.695 19.35 4.797v32.402h-19.95v11.988h33.75v-52.644c-8.85-4.793-19.2-8.0941-33.15-8.0941-22.95 0-34.05 11.844-34.05 41.844v35.547c0 21.601 11.1 35.402 34.05 35.402 23.4 0 34.5-8.551 33.6-31.203h-14.4"/><path d="m1201.8 161.46h20.71c9.9 0 14.7 8.555 14.7 17.996 0 7.805-3.9 16.5-14.55 16.5h-20.86zm0-11.992v-49.809h-13.79v108.3h37.35c19.2 0 25.94-13.5 25.94-26.996 0-12.754-7.05-22.5-19.79-24.746v-0.305c12.44-1.949 16.94-6.148 17.69-27.898 0.16-4.649 1.66-21.602 3.75-28.352h-14.39c-3.91 7.4999-3.01 21.606-4.2 35.996-1.05 13.203-11.7 13.813-16.35 13.813h-16.21"/><path d="m1316.2 195.22h-0.3l-16.95-57.746h34.65zm-8.4 12.746h17.55l35.24-108.3h-15.45l-7.79 25.805h-41.86l-8.08-25.805h-13.96l34.35 108.3"/><path d="m1398.7 159.36h15.14c5.7 0 19.2 1.504 19.2 18.45 0 16.503-12.29 18.148-15.3 18.148h-19.04zm-13.81-59.699v108.3h32.11c14.54 0 30.13-5.398 30.13-30.895 0-24.597-19.2-29.695-30.29-29.695h-18.14v-47.707h-13.81"/><path d="m1473.4 99.664v108.3h13.81v-46.789h37.94v46.789h13.8v-108.3h-13.8v49.504h-37.94v-49.504h-13.81"/><path d="m1620.6 207.96h13.95l-29.55-67.047v-41.25h-13.79v41.25l-29.11 67.047h15.45l21.16-52.348 21.89 52.348"/><path d="m1743.9 138.67v36.59c0 22.652-15.6 23.398-19.95 23.398s-19.95-0.746-19.95-23.398v-36.59c0-23.703 6.9-29.699 19.95-29.699 13.06 0 19.95 5.996 19.95 29.699zm-54 0.594v35.547c0 21.601 11.1 35.402 34.05 35.402s34.05-13.801 34.05-35.402v-35.547c0-30-11.1-41.844-34.05-41.844s-34.05 11.844-34.05 41.844"/><path d="m1786.2 99.664v108.3h53.7v-12h-39.9v-34.789h37.79v-12.004h-37.79v-49.504h-13.8"/><path d="m1929 195.22h-0.3l-16.96-57.746h34.65zm-8.41 12.746h17.56l35.24-108.3h-15.44l-7.81 25.805h-41.84l-8.1-25.805h-13.94l34.33 108.3"/><path d="m2045.4 179.01c0 12.75-5.26 19.648-19.2 19.648-4.36 0-19.96-0.746-19.96-23.398v-36.59c0-23.703 6.9-29.699 19.96-29.699 9.89 0 16.49 2.695 19.34 4.797v32.402h-19.95v11.988h33.75v-52.644c-8.85-4.793-19.2-8.0941-33.14-8.0941-22.95 0-34.06 11.844-34.06 41.844v35.547c0 21.601 11.11 35.402 34.06 35.402 23.39 0 34.49-8.551 33.59-31.203h-14.39"/><path d="m2103.6 99.664h-13.79v108.3h13.79v-108.3"/><path d="m2208.2 207.96v-108.3h-18.91l-42.74 93.899h-0.31v-93.899h-12.29v108.3h19.5l42.15-92.688h0.29v92.688h12.31"/><path d="m2290.1 179.01c0 12.75-5.25 19.648-19.2 19.648-4.35 0-19.95-0.746-19.95-23.398v-36.59c0-23.703 6.91-29.699 19.95-29.699 9.91 0 16.51 2.695 19.36 4.797v32.402h-19.96v11.988h33.75v-52.644c-8.85-4.793-19.2-8.0941-33.15-8.0941-22.95 0-34.04 11.844-34.04 41.844v35.547c0 21.601 11.09 35.402 34.04 35.402 23.4 0 34.5-8.551 33.6-31.203h-14.4"/><path d="m587.1 1.6406h-5v346.57h5v-346.57"/></g><path d="m242.32 62.109-99.254 135.64v-98.676h39.469v-97.437h-182.54v97.437h36.992v151.7h-36.992v97.43h143.4l98.922-136.63 98.985 136.63h143.34v-97.43h-36.993v-151.7h36.993v-97.437h-182.5v97.437h39.433v98.676l-99.258-135.64" fill="#fbc807"/><path d="m1024.6 22.129c0.09-14.633 0.09-16.621 7.77-16.801v-3.5312h-26.66v3.5312c6.85 0.55078 7.58 1.6445 7.67 8.4961 0.08 2.6406 0.08 5.6094 0.08 8.2031v23.109c0 7.6563-0.08 10.371-0.35 12.438-0.47 3.5352-2.19 4.1836-7.4 4.6289v3.418l28.91-0.0977c15.74 0 20.7-7.5 20.7-16.344 0-6.1719-3.79-14.16-12.58-16.859l11.31-19.668c4.08-7.5156 6.25-9.2343 11.4-9.9609v-2.1445c-1.36-0.10156-2.73-0.17969-4.17-0.17969-12.04 0-17 4.1445-22.06 14.906l-3.53 7.5c-3.79 8.043-5.04 7.5391-11.09 7.6563zm0 13.902c1.69-0.3477 4.14-0.6407 5.95-0.6407 7.25-0.039 12.74 5.6641 13.01 10.781 0.41 7.3828-3.34 13.809-15.08 13.809-1.64 0-2.63-0.0821-3.88-0.3516zm815.5-6.1094v-3.4375c-5.78-0.336-5.78-1.9961-5.95-14.102v-4.7851c-4.93-3.0859-12.04-7.5-24.55-7.5-21.98 0-32.47 16.637-32.47 33.355 0 20.434 13.81 33.734 31.18 33.734 10.89 0 17.16-4.082 22.36-7.2461l3.34 3.7891 0.49-19.961-2.6-0.4687c-1.31 3.789-3.26 8.164-8.07 12.984-2.13 2.0742-6.19 4.7461-12.63 4.7461-11.14 0-20.39-9.3907-20.39-27.754 0-14.668 7.24-27.223 19.64-27.223 7.13 0 10.77 4.9609 11.12 5.3476 1.13 1.7188 1.4 3.2461 1.29 6.0391-0.3 8.1445-1.39 8.3203-8.46 9.043v3.4375zm-845.15-28.125c0 4.6055 0.8 12.188 1.347 16.543h-3.066c-2.188-11.406-8.594-10.844-17.813-10.844-8.496 0-10.195 2.2695-10.195 6.4297v17.832h6.855c7.852 0 10.118-0.6875 10.118-7.8164h3.066v21.055h-3.066c-0.625-5.6602-1.797-7.5547-10.02-7.5547h-6.953v22.5h7.832c10.859 0 14.746-0.8008 16.211-9.4726h2.891l-0.391 15.152h-45.449v-3.418c4.59-0.4687 6.582-0.7383 7.226-3.75 0.449-1.9687 0.508-8.9804 0.508-11.52v-22.445c0-1.7149-0.059-9.3906-0.137-10.934-0.175-6.9531-1.015-7.6172-7.597-8.2266v-3.5312zm247.87 0v3.457c5 0.50781 6.89 0.68359 8.14 1.9726 1.47 1.4219 1.47 3.0468 1.53 10.016v11.211l-16.94 26.312c-4.63 6.875-4.7 7.0508-10.84 7.4024v3.5312h33.21v-3.5312c-6.68-0.1797-9.67-0.3516-9.67-3.4219 0-1.7188 1.17-3.7109 2.81-6.4258l9.75-15.973 9.02 15.894c1.62 3.1875 2.54 5.0391 2.54 6.5039 0 3.0703-2.62 3.1484-7.07 3.4219v3.5312h24.92v-3.5312c-6.43-0.1797-8.3-2.0703-15.59-13.984l-9.94-16.641v-13.305c0-11.559 0.06-12.477 9.55-12.984v-3.457zm-302.54 63.824v-3.4531c-6.133-0.8985-6.993-2.6016-12.227-15.274l-19.434-46.348h-3.437l-17.422 47.066c-4.336 12.129-4.902 13.559-11.309 14.555v3.4531h30.274v-3.4531c-5.156-0.1797-8.496-0.3516-8.496-4.0625 0-1.7969 0.449-3.3399 2.187-8.6719l11.114-32.461 13.007 33.551c0.801 2.25 1.895 5.1602 1.895 6.7579 0 4.6132-4.512 4.8281-8.496 4.8867v3.4531zm-226.25 0v-3.4531c-8.477-0.6055-8.477-0.8985-8.575-14.453v-14.98c0-7.8125 0.157-14.496 4.258-20.469 3.262-4.7461 8.828-5.3554 11.602-5.3554 9.14 0 14.16 4.7304 16.347 12.27 1.797 5.9336 1.875 17.144 1.875 24.566 0 2.3477 0 9.9648-0.078 11.992-0.371 5.8242-3.359 5.9961-9.043 6.4297v3.4531h24.297v-3.4531c-5.957 0.1133-7.226-1.2305-7.578-7.6016-0.098-1.5-0.82-19.238-0.898-21.953-0.196-4.8399-0.469-9.668-1.543-14.274-4.336-17.168-21.055-18.086-25.489-18.086-3.515 0-10.761 0.54688-16.718 4.5273-9.493 6.4296-9.59 15.996-9.59 26.289v14.477c-0.078 6.875-0.078 9.9609-0.274 11.582-0.547 3.9805-2.519 4.7656-7.324 5.0391v3.4531zm459.86-63.824v2.7148c5.86 0.09766 7.5 2.2461 7.5 7.3047v47.031h-7.95c-7.2 0-11.99 0.2929-12.56-11.113h-3.32l0.53 17.887h57.97l0.53-17.887h-3.36c-0.53 11.406-5.31 11.113-12.54 11.113h-7.93v-47.031c0-5.0586 1.62-7.207 7.48-7.3047v-2.7148zm-104.92 19.883 3.26 0.3476c3.52-10.387 9.38-15.973 18.97-15.973 6.77 0 12.75 2.8867 12.75 9.7617 0 7.25-6.95 10.102-10.04 11.371-2.54 1.0117-5.23 1.8359-7.77 2.832-5.24 1.8907-15.1 5.9336-15.1 18.34 0 11.914 9.4 18.629 20.33 18.629 4.26 0 9.22-0.918 14.67-4.375l3.87 2.793 2.09-18.942-3.19-0.625c-1.09 4.1563-1.91 6.0704-4.41 9.4336-3.07 3.9844-7.4 5.836-12.48 5.836-6.78 0-10.74-3.2578-10.74-8.336 0-7.582 7.5-10.137 14.63-12.445 3.63-1.2109 6.6-2.207 9.2-3.7109 5.05-3.0078 9.23-8.5938 9.23-16.266 0-11.055-9.06-20.176-22.5-20.176-8.67 0-14.02 3.4336-16.52 5.0781l-5.31 3.8476zm-306.11-19.883v3.457c5.254 0.2539 7.226 0.35156 7.968 3.9648 0.899 4.2578 1.172 42.105 1.25 48.711-3.535 3.2422-4.98 3.8867-9.218 4.2383v3.4531h19.16c5.332-7.5977 6.504-9.3125 15.918-20.973l17.793-22.051v28.551c-0.078 10.121-0.352 10.668-10.489 11.02v3.4531h25.118v-3.4531c-6.953-0.0586-7.559-1.5235-7.637-11.914l-0.938-49.277h-3.769l-5.703 7.1445c-2.91 3.6367-5.781 7.2305-8.692 10.766l-25.195 31.109v-33.102c0-10.293 0.703-10.664 10.488-11.641v-3.457zm358.86 0v3.457c6.22 0.80078 7.5 1.5039 7.56 8.2227v33.965c-0.06 13.297-0.06 13.668-7.56 14.727v3.4531h26.47v-3.4531c-7.52-0.7266-7.52-1.0586-7.52-14.727v-25.762c0-2.2461 0.1-9.4141 0.29-11.289 0.45-3.8867 2.25-4.7851 7.23-5.1367v-3.457zm-281.17 0v3.457c6.27 0.80078 7.52 1.5039 7.617 8.2227v33.965c-0.097 13.297-0.097 13.668-7.617 14.727v3.4531h26.523v-3.4531c-7.5-0.7266-7.5-1.0586-7.5-14.727v-25.762c0-2.2461 0.079-9.4141 0.274-11.289 0.449-3.8867 2.265-4.7851 7.226-5.1367v-3.457zm548.58 3.457v-3.5195h26.42v3.5195c-6.6 0.625-7.42 1.25-7.61 8.2227l0.05 18.203h7.07c7.13 0 10.92-0.6875 11.37-7.8164h3.09v21.059h-3.09c-0.35-6.875-2.24-7.5625-10.02-7.5625h-8.42v22.113c2.29 0.2929 3.54 0.3476 7.6 0.3476 12.5 0 16.51 0.0625 18.2-9.9219h3.15l-1.02 15.625h-46.79v-3.414c4.59-0.4688 6.6-0.7461 7.24-3.711 0.43-1.9961 0.53-9.0273 0.53-11.562v-22.402c0-1.7422-0.12-9.4375-0.21-10.957-0.18-6.9727-0.96-7.5977-7.56-8.2227zm-38.3 0.72265c3.63 0.09375 8.71 1.8906 12.65 7.8867 4.49 6.914 5.43 13.285 5.18 21.606-0.28 8.2031-2.56 15.27-7.25 20.293-2.05 2.1836-6.07 5.4102-11.42 5.2539-5.32 0-9.26-3.3633-11.25-5.6093-4.54-5.1329-6.61-12.285-6.61-20.508 0-8.3203 1.12-14.644 5.82-21.422 4.15-5.8789 9.26-7.5 12.88-7.5zm31.89 27.734c0-22.07-15.04-33.637-31.95-33.637-18.58 0-33.07 13.402-33.07 33.734 0 17.422 11.7 33.18 32.19 33.086 19.33-0.0781 32.83-13.809 32.83-33.184zm532.4-31.977v3.418c5.26 0.29297 7.25 0.35547 7.97 3.9883 0.9 4.2383 1.17 42.09 1.25 48.711-3.53 3.2578-4.96 3.9062-9.22 4.2578v3.414h19.18c5.33-7.5937 6.49-9.2929 15.9-20.957l17.81-22.047v28.574c-0.07 10.098-0.35 10.664-10.48 11.016v3.414h25.15v-3.414c-6.99-0.0977-7.6-1.543-7.67-11.934l-0.92-49.258h-3.83l-5.68 7.1289c-2.88 3.5937-5.79 7.2461-8.68 10.762l-25.21 31.09v-33.062c0-10.332 0.7-10.703 10.49-11.684v-3.418zm-394.35 0v3.418c8.02 0.54688 8.02 0.90235 8.12 12.738v32.09l-22.32-49.063h-5.61l-20.51 49.727-0.46-37.523c0-6.25 0.74-7.4219 7.52-7.9688v-3.418h-22.15v3.418c5.13 0.29297 7.17 0.98047 7.48 5.3165 0.19 1.7187 0.47 7.0898 0.54 10.602l0.92 26.742c0.08 2.0859 0.08 5.1563 0.08 7.4219 0 6.3086-1.25 6.7773-6.95 6.875v3.414h20.08l19.88-48.457 21.87 48.457h19.44v-3.7656c-7.6-0.4492-7.68-1.289-7.6-11.211v-26.312c0-4.375 0.08-9.7617 0.35-13.024 0.37-4.707 2.19-5.5898 7.25-6.0586v-3.418zm40.19 0v3.418c6.25 0.82422 7.5 1.543 7.6 8.2266v34.004c-0.1 13.262-0.1 13.633-7.6 14.727v3.414h26.49v-3.414c-7.5-0.7461-7.5-1.0938-7.5-14.727v-25.781c0-2.2657 0.11-9.4141 0.29-11.289 0.43-3.8867 2.25-4.8047 7.21-5.1602v-3.418zm181.8 0v3.418c6.25 0.82422 7.5 1.543 7.6 8.2266v34.004c-0.1 13.262-0.1 13.633-7.6 14.727v3.414h26.54v-3.414c-7.5-0.7461-7.5-1.0938-7.5-14.727v-25.781c0-2.2657 0.08-9.4141 0.26-11.289 0.45-3.8867 2.26-4.8047 7.24-5.1602v-3.418zm-78.75 0v3.418c7.25 0.625 7.32 2.1914 7.32 8.3243 0.1 2.2461 0.1 4.5312 0.1 6.7773v26.758c0 4.1602 0 8.3164-0.29 10.309-0.35 3.7891-2.17 4.3203-7.13 4.7891v3.414h27.34v-3.414c-5.35-0.5664-7.34-0.7461-7.97-4.2578-0.46-2.0508-0.52-6.7578-0.52-10.586v-8.789c5.49-0.293 9.33-0.4297 14.68-0.4297 5.41 0 9.69 0.1367 15.14 0.4297v10.703c-0.1 11.637-0.17 12.129-8.87 12.93v3.414h27.68v-3.414c-7.42-0.918-7.42-1-7.42-13.125v-26.934c0-2.5 0.08-10.566 0.37-12.461 0.45-3.3438 2.34-3.9688 7.05-4.4375v-3.418h-27.68v3.418c6.41 0.72657 8.13 0.90235 8.7 5.3165 0.17 1.8359 0.17 4.2578 0.17 8.8671v11.719c-5.06 0.1758-9.28 0.4492-14.53 0.4492-5.51 0-9.8-0.1797-15.29-0.4492v-11.719c0.06-13.281 0.25-13.281 8.49-14.184v-3.418zm-10.74 14.164c-2.83-4.5898-9.61-15.902-27.23-15.902-19.22 0-31.66 14.184-31.66 32.816 0 17.262 10.55 34.254 32.09 34.254 11.35 0 17.36-4.7617 21.07-7.6719l4.34 3.9649 0.35-19.356-2.83-0.5273c-1.11 3.7109-2.73 6.6992-6.89 11.211-1.96 2.0703-6.66 6.25-13.34 6.25-11.55 0-20.63-9.4141-20.63-25.977 0-13.984 7.48-27.187 22.23-27.187 11.15 0 15.37 6.2305 18.69 11.012zm222.15 37.031-9.38-26.445h18.36zm5.74-51.195v3.418c4.33 0.29297 7.67 0.625 7.67 4.1641 0 1.2695-0.39 2.6172-0.74 3.8047l-1.89 6.4883h-22.48l-2-5.4922c-0.43-1.3828-0.82-2.6328-0.82-3.9805 0-4.5156 4.79-4.8086 8.68-4.9844v-3.418h-26.29v3.418c6.7 0.29297 8.86 1.6211 11.31 8.3243l17.26 47.34-1 1.543c7.39 2.4219 9.48 3.539 12.66 5.8789 1.25-4.3125 1.43-4.8789 2.85-9.4141l14.14-43.355c2.52-7.6954 3.71-9.5899 10.45-10.316v-3.418h-29.8" fill="#fff"/></g></g></svg>
