<?xml version="1.0" encoding="UTF-8" standalone="no"?>
<svg
   xmlns:dc="http://purl.org/dc/elements/1.1/"
   xmlns:cc="http://creativecommons.org/ns#"
   xmlns:rdf="http://www.w3.org/1999/02/22-rdf-syntax-ns#"
   xmlns:svg="http://www.w3.org/2000/svg"
   xmlns="http://www.w3.org/2000/svg"
   xmlns:sodipodi="http://sodipodi.sourceforge.net/DTD/sodipodi-0.dtd"
   xmlns:inkscape="http://www.inkscape.org/namespaces/inkscape"
   width="34"
   height="34"
   viewBox="0 0 34 34"
   version="1.1"
   id="svg4"
   sodipodi:docname="twitter.svg"
   inkscape:version="0.92.4 (5da689c313, 2019-01-14)">
  <metadata
     id="metadata10">
    <rdf:RDF>
      <cc:Work
         rdf:about="">
        <dc:format>image/svg+xml</dc:format>
        <dc:type
           rdf:resource="http://purl.org/dc/dcmitype/StillImage" />
        <dc:title></dc:title>
      </cc:Work>
    </rdf:RDF>
  </metadata>
  <defs
     id="defs8" />
  <sodipodi:namedview
     pagecolor="#ffffff"
     bordercolor="#666666"
     borderopacity="1"
     objecttolerance="10"
     gridtolerance="10"
     guidetolerance="10"
     inkscape:pageopacity="0"
     inkscape:pageshadow="2"
     inkscape:window-width="1634"
     inkscape:window-height="1106"
     id="namedview6"
     showgrid="false"
     inkscape:zoom="9.8333333"
     inkscape:cx="13.779662"
     inkscape:cy="0.76271214"
     inkscape:window-x="3682"
     inkscape:window-y="164"
     inkscape:window-maximized="0"
     inkscape:current-layer="svg4"
     fit-margin-top="0"
     fit-margin-left="0"
     fit-margin-right="0"
     fit-margin-bottom="0" />
  <path
     id="path866"
     d="M 26.916667,0 H 7.083333 C 3.171917,0 0,3.1719173 0,7.0833339 V 26.916668 c 0,3.911416 3.171917,7.083333 7.083333,7.083333 H 26.916667 C 30.8295,34.000001 34,30.828084 34,26.916668 V 7.0833339 C 34,3.1719173 30.8295,0 26.916667,0 Z M 26.71975,13.085751 c 0.296083,6.54075 -4.5815,13.83375 -13.2175,13.83375 -2.6265,0 -5.07025,-0.76925 -7.128667,-2.089583 2.467834,0.290416 4.93,-0.393834 6.885,-1.92525 -2.03575,-0.03825 -3.75275,-1.382667 -4.3435,-3.23 0.729584,0.138833 1.446417,0.09775 2.0995,-0.07933 C 8.777667,19.146255 7.234917,17.131755 7.2845,14.977005 c 0.626167,0.3485 1.344417,0.558167 2.105167,0.58225 -2.06975,-1.384083 -2.65625,-4.11825 -1.439334,-6.2092504 2.293584,2.8135004 5.7205,4.6650834 9.585167,4.8591674 -0.678583,-2.908417 1.53,-5.7091674 4.531917,-5.7091674 1.335916,0 2.54575,0.5638333 3.392916,1.4690833 1.059667,-0.20825 2.055584,-0.595 2.955167,-1.1276666 -0.3485,1.0865833 -1.085167,1.9975007 -2.04425,2.5726667 0.940667,-0.113333 1.837417,-0.362666 2.670417,-0.732416 -0.621917,0.929333 -1.411,1.748166 -2.321917,2.404083 z"
     inkscape:connector-curvature="0"
     style="stroke-width:1.41666663;fill:#ffffff" />
</svg>
